<?xml version="1.0" encoding="UTF-8" standalone="no"?>
<!DOCTYPE svg PUBLIC "-//W3C//DTD SVG 1.1//EN"
 "http://www.w3.org/Graphics/SVG/1.1/DTD/svg11.dtd">
<!-- Generated by graphviz version 2.38.0 (20140413.2041)
 -->
<!-- Title: Tree Pages: 1 -->
<svg width="450pt" height="261pt"
 viewBox="0.00 0.00 450.00 261.00" xmlns="http://www.w3.org/2000/svg" xmlns:xlink="http://www.w3.org/1999/xlink">
<g id="graph0" class="graph" transform="scale(1 1) rotate(0) translate(4 257)">
<title>Tree</title>
<polygon fill="white" stroke="none" points="-4,4 -4,-257 446,-257 446,4 -4,4"/>
<!-- 0 -->
<g id="node1" class="node"><title>0</title>
<path fill="#ffffff" stroke="black" d="M257,-253C257,-253 184,-253 184,-253 178,-253 172,-247 172,-241 172,-241 172,-201 172,-201 172,-195 178,-189 184,-189 184,-189 257,-189 257,-189 263,-189 269,-195 269,-201 269,-201 269,-241 269,-241 269,-247 263,-253 257,-253"/>
<text text-anchor="start" x="194" y="-238.8" font-family="Helvetica,sans-Serif" font-size="14.00">X</text>
<text text-anchor="start" x="204" y="-238.8" font-family="Helvetica,sans-Serif" baseline-shift="sub" font-size="14.00">1</text>
<text text-anchor="start" x="211" y="-238.8" font-family="Helvetica,sans-Serif" font-size="14.00"> ≤ 0.5</text>
<text text-anchor="start" x="191.5" y="-224.8" font-family="Helvetica,sans-Serif" font-size="14.00">gini = 0.5</text>
<text text-anchor="start" x="181" y="-210.8" font-family="Helvetica,sans-Serif" font-size="14.00">samples = 4</text>
<text text-anchor="start" x="180" y="-196.8" font-family="Helvetica,sans-Serif" font-size="14.00">value = [2, 2]</text>
</g>
<!-- 1 -->
<g id="node2" class="node"><title>1</title>
<path fill="#ffffff" stroke="black" d="M200,-153C200,-153 127,-153 127,-153 121,-153 115,-147 115,-141 115,-141 115,-101 115,-101 115,-95 121,-89 127,-89 127,-89 200,-89 200,-89 206,-89 212,-95 212,-101 212,-101 212,-141 212,-141 212,-147 206,-153 200,-153"/>
<text text-anchor="start" x="137" y="-138.8" font-family="Helvetica,sans-Serif" font-size="14.00">X</text>
<text text-anchor="start" x="147" y="-138.8" font-family="Helvetica,sans-Serif" baseline-shift="sub" font-size="14.00">0</text>
<text text-anchor="start" x="154" y="-138.8" font-family="Helvetica,sans-Serif" font-size="14.00"> ≤ 0.5</text>
<text text-anchor="start" x="134.5" y="-124.8" font-family="Helvetica,sans-Serif" font-size="14.00">gini = 0.5</text>
<text text-anchor="start" x="124" y="-110.8" font-family="Helvetica,sans-Serif" font-size="14.00">samples = 2</text>
<text text-anchor="start" x="123" y="-96.8" font-family="Helvetica,sans-Serif" font-size="14.00">value = [1, 1]</text>
</g>
<!-- 0&#45;&gt;1 -->
<g id="edge1" class="edge"><title>0&#45;&gt;1</title>
<path fill="none" stroke="black" d="M202.465,-188.992C197.475,-180.413 191.987,-170.978 186.746,-161.966"/>
<polygon fill="black" stroke="black" points="189.667,-160.027 181.613,-153.142 183.616,-163.546 189.667,-160.027"/>
<text text-anchor="middle" x="175.22" y="-173.611" font-family="Helvetica,sans-Serif" font-size="14.00">True</text>
</g>
<!-- 4 -->
<g id="node5" class="node"><title>4</title>
<path fill="#ffffff" stroke="black" d="M315,-153C315,-153 242,-153 242,-153 236,-153 230,-147 230,-141 230,-141 230,-101 230,-101 230,-95 236,-89 242,-89 242,-89 315,-89 315,-89 321,-89 327,-95 327,-101 327,-101 327,-141 327,-141 327,-147 321,-153 315,-153"/>
<text text-anchor="start" x="252" y="-138.8" font-family="Helvetica,sans-Serif" font-size="14.00">X</text>
<text text-anchor="start" x="262" y="-138.8" font-family="Helvetica,sans-Serif" baseline-shift="sub" font-size="14.00">0</text>
<text text-anchor="start" x="269" y="-138.8" font-family="Helvetica,sans-Serif" font-size="14.00"> ≤ 0.5</text>
<text text-anchor="start" x="249.5" y="-124.8" font-family="Helvetica,sans-Serif" font-size="14.00">gini = 0.5</text>
<text text-anchor="start" x="239" y="-110.8" font-family="Helvetica,sans-Serif" font-size="14.00">samples = 2</text>
<text text-anchor="start" x="238" y="-96.8" font-family="Helvetica,sans-Serif" font-size="14.00">value = [1, 1]</text>
</g>
<!-- 0&#45;&gt;4 -->
<g id="edge4" class="edge"><title>0&#45;&gt;4</title>
<path fill="none" stroke="black" d="M238.852,-188.992C243.929,-180.413 249.513,-170.978 254.846,-161.966"/>
<polygon fill="black" stroke="black" points="257.988,-163.531 260.069,-153.142 251.963,-159.966 257.988,-163.531"/>
<text text-anchor="middle" x="266.278" y="-173.659" font-family="Helvetica,sans-Serif" font-size="14.00">False</text>
</g>
<!-- 2 -->
<g id="node3" class="node"><title>2</title>
<path fill="#e58139" stroke="black" d="M85,-53C85,-53 12,-53 12,-53 6,-53 0,-47 0,-41 0,-41 0,-12 0,-12 0,-6 6,-0 12,-0 12,-0 85,-0 85,-0 91,-0 97,-6 97,-12 97,-12 97,-41 97,-41 97,-47 91,-53 85,-53"/>
<text text-anchor="start" x="19.5" y="-37.8" font-family="Helvetica,sans-Serif" font-size="14.00">gini = 0.0</text>
<text text-anchor="start" x="9" y="-22.8" font-family="Helvetica,sans-Serif" font-size="14.00">samples = 1</text>
<text text-anchor="start" x="8" y="-7.8" font-family="Helvetica,sans-Serif" font-size="14.00">value = [1, 0]</text>
</g>
<!-- 1&#45;&gt;2 -->
<g id="edge2" class="edge"><title>1&#45;&gt;2</title>
<path fill="none" stroke="black" d="M124.887,-88.9415C113.117,-79.4746 100.16,-69.0523 88.3122,-59.5228"/>
<polygon fill="black" stroke="black" points="90.3015,-56.6312 80.3156,-53.0908 85.9141,-62.0857 90.3015,-56.6312"/>
</g>
<!-- 3 -->
<g id="node4" class="node"><title>3</title>
<path fill="#399de5" stroke="black" d="M200,-53C200,-53 127,-53 127,-53 121,-53 115,-47 115,-41 115,-41 115,-12 115,-12 115,-6 121,-0 127,-0 127,-0 200,-0 200,-0 206,-0 212,-6 212,-12 212,-12 212,-41 212,-41 212,-47 206,-53 200,-53"/>
<text text-anchor="start" x="134.5" y="-37.8" font-family="Helvetica,sans-Serif" font-size="14.00">gini = 0.0</text>
<text text-anchor="start" x="124" y="-22.8" font-family="Helvetica,sans-Serif" font-size="14.00">samples = 1</text>
<text text-anchor="start" x="123" y="-7.8" font-family="Helvetica,sans-Serif" font-size="14.00">value = [0, 1]</text>
</g>
<!-- 1&#45;&gt;3 -->
<g id="edge3" class="edge"><title>1&#45;&gt;3</title>
<path fill="none" stroke="black" d="M163.5,-88.9415C163.5,-80.6579 163.5,-71.643 163.5,-63.1346"/>
<polygon fill="black" stroke="black" points="167,-63.0908 163.5,-53.0908 160,-63.0909 167,-63.0908"/>
</g>
<!-- 5 -->
<g id="node6" class="node"><title>5</title>
<path fill="#399de5" stroke="black" d="M315,-53C315,-53 242,-53 242,-53 236,-53 230,-47 230,-41 230,-41 230,-12 230,-12 230,-6 236,-0 242,-0 242,-0 315,-0 315,-0 321,-0 327,-6 327,-12 327,-12 327,-41 327,-41 327,-47 321,-53 315,-53"/>
<text text-anchor="start" x="249.5" y="-37.8" font-family="Helvetica,sans-Serif" font-size="14.00">gini = 0.0</text>
<text text-anchor="start" x="239" y="-22.8" font-family="Helvetica,sans-Serif" font-size="14.00">samples = 1</text>
<text text-anchor="start" x="238" y="-7.8" font-family="Helvetica,sans-Serif" font-size="14.00">value = [0, 1]</text>
</g>
<!-- 4&#45;&gt;5 -->
<g id="edge5" class="edge"><title>4&#45;&gt;5</title>
<path fill="none" stroke="black" d="M278.5,-88.9415C278.5,-80.6579 278.5,-71.643 278.5,-63.1346"/>
<polygon fill="black" stroke="black" points="282,-63.0908 278.5,-53.0908 275,-63.0909 282,-63.0908"/>
</g>
<!-- 6 -->
<g id="node7" class="node"><title>6</title>
<path fill="#e58139" stroke="black" d="M430,-53C430,-53 357,-53 357,-53 351,-53 345,-47 345,-41 345,-41 345,-12 345,-12 345,-6 351,-0 357,-0 357,-0 430,-0 430,-0 436,-0 442,-6 442,-12 442,-12 442,-41 442,-41 442,-47 436,-53 430,-53"/>
<text text-anchor="start" x="364.5" y="-37.8" font-family="Helvetica,sans-Serif" font-size="14.00">gini = 0.0</text>
<text text-anchor="start" x="354" y="-22.8" font-family="Helvetica,sans-Serif" font-size="14.00">samples = 1</text>
<text text-anchor="start" x="353" y="-7.8" font-family="Helvetica,sans-Serif" font-size="14.00">value = [1, 0]</text>
</g>
<!-- 4&#45;&gt;6 -->
<g id="edge6" class="edge"><title>4&#45;&gt;6</title>
<path fill="none" stroke="black" d="M317.113,-88.9415C328.883,-79.4746 341.84,-69.0523 353.688,-59.5228"/>
<polygon fill="black" stroke="black" points="356.086,-62.0857 361.684,-53.0908 351.699,-56.6312 356.086,-62.0857"/>
</g>
</g>
</svg>
